<svg xmlns="http://www.w3.org/2000/svg" width="26.692" height="23.726" viewBox="0 0 26.692 23.726"><defs><style>.a{fill:#fafafa;}</style></defs><path class="a" d="M24.473,13.963l2.191-9.639a1.112,1.112,0,0,0-1.084-1.359H7.378L6.953.889A1.112,1.112,0,0,0,5.863,0H1.112A1.112,1.112,0,0,0,0,1.112v.741A1.112,1.112,0,0,0,1.112,2.966H4.351L7.606,18.881a2.6,2.6,0,1,0,3.107.4h9.715a2.594,2.594,0,1,0,2.947-.482l.256-1.125a1.112,1.112,0,0,0-1.084-1.359H10.108l-.3-1.483H23.389A1.112,1.112,0,0,0,24.473,13.963Z"/></svg>